PathFileType  4	(X/Y/Z) C:\Users\antoi\Documents\MyRepositories\mobilecap\ResultsAnalysis
DataRate	CameraRate	NumFrames	NumMarkers	Units	OrigDataRate	OrigDataStartFrame	OrigNumFrames
100.0	100.0	4	51	mm	100.0	1	1184
Frame#	Time	r_knee			r_shank_antsup			r_ankle			r_calc			r_5meta			r_toe			L_knee			L_shank_antsup			L_ankle			L_calc			L_5meta			L_toe			r_sh2			r_sh3			r_sh4			L_sh2			L_sh3			r_thigh1			r_thigh2			r_thigh3			r_thigh4			r_thigh5			L_thigh1			L_thigh2			L_thigh3			L_thigh4			r.ASIS			r.PSIS			L.ASIS			L.PSIS			C7			R_Shoulder			L_Shoulder			R_Sternum			L_Sternum			R_humerus			R_elbow_med			R_elbow_lat			R_forearm			R_wrist_radius			R_wrist_ulna			L_humerus			L_elbow_med			L_elbow_lat			L_forearm			L_wrist_radius			L_wrist_ulna			R_HJC			L_HJC			R_HJC_reg			L_HJC_reg			
		X1	Y1	Z1	X2	Y2	Z2	X3	Y3	Z3	X4	Y4	Z4	X5	Y5	Z5	X6	Y6	Z6	X7	Y7	Z7	X8	Y8	Z8	X9	Y9	Z9	X10	Y10	Z10	X11	Y11	Z11	X12	Y12	Z12	X13	Y13	Z13	X14	Y14	Z14	X15	Y15	Z15	X16	Y16	Z16	X17	Y17	Z17	X18	Y18	Z18	X19	Y19	Z19	X20	Y20	Z20	X21	Y21	Z21	X22	Y22	Z22	X23	Y23	Z23	X24	Y24	Z24	X25	Y25	Z25	X26	Y26	Z26	X27	Y27	Z27	X28	Y28	Z28	X29	Y29	Z29	X30	Y30	Z30	X31	Y31	Z31	X32	Y32	Z32	X33	Y33	Z33	X34	Y34	Z34	X35	Y35	Z35	X36	Y36	Z36	X37	Y37	Z37	X38	Y38	Z38	X39	Y39	Z39	X40	Y40	Z40	X41	Y41	Z41	X42	Y42	Z42	X43	Y43	Z43	X44	Y44	Z44	X45	Y45	Z45	X46	Y46	Z46	X47	Y47	Z47	X48	Y48	Z48	X49	Y49	Z49	X50	Y50	Z50	X51	Y51	Z51	

1	0.00000000	-277.60429	476.45520	-415.75753	-244.85236	371.17910	-409.08957	-312.27533	92.34577	-407.54225	-350.23479	52.12445	-462.29615	-206.21061	40.55866	-352.37345	-163.22836	58.14405	-389.55560	-263.73365	473.79458	-843.40622	-224.99228	377.56656	-822.83686	-300.00511	91.12693	-859.09297	-335.01678	51.87745	-807.65326	-185.93647	36.90959	-905.99072	-138.22801	56.79185	-860.56922	-254.01151	257.83924	-410.43375	-309.21582	373.44200	-369.35007	-330.63620	263.45492	-381.96056	-288.76326	404.96897	-878.73088	-299.75231	284.45812	-899.12537	-170.28111	768.94371	-456.70368	-173.14902	661.27102	-440.36365	-221.11269	642.17631	-397.14186	-275.70476	773.97419	-417.22076	-274.00850	659.71192	-400.72875	-173.95256	757.23335	-818.12951	-169.49517	621.46926	-833.06345	-281.08749	768.00562	-850.11011	-278.00206	627.53467	-858.15306	-142.30504	921.62944	-504.15132	-315.25350	990.12850	-581.97725	-127.90432	922.26315	-751.62626	-312.05410	991.51417	-698.64508	-323.99451	1424.50954	-635.81745	-272.12589	1396.09451	-480.65765	-257.96321	1401.80652	-791.45939	-198.30842	1384.88940	-616.92992	-194.52418	1381.70582	-655.52374	-246.68395	1274.76250	-410.20121	-329.60659	1070.72961	-434.32841	-281.88755	1092.99686	-367.90277	-184.57079	1137.02783	-427.30438	-125.28536	1187.58952	-493.22933	-102.37263	1158.53214	-485.00149	-225.42399	1256.15532	-858.76030	-300.90639	1065.17138	-827.43003	-260.51894	1073.16194	-898.33264	-173.44303	1108.45223	-844.21884	-105.39388	1170.51605	-754.12842	-89.44370	1141.09909	-751.74178	-240.39809	863.63534	-536.92568	-226.01725	860.22197	-725.72580	-220.39709	861.51305	-541.80061	-215.91238	863.45538	-705.33791	
2	0.01000000	-277.45968	476.53166	-415.75584	-244.83806	371.15446	-409.06809	-312.29285	92.39142	-407.52331	-350.25200	52.06976	-462.31912	-206.17810	40.53737	-352.37423	-163.27641	58.15129	-389.52144	-263.61462	473.68154	-843.07905	-224.93932	377.58176	-822.82467	-299.98829	91.11566	-859.08820	-335.00501	51.86128	-807.64606	-185.96754	36.95900	-906.05184	-138.25382	56.83577	-860.73603	-254.05166	257.84746	-410.46924	-309.19329	373.43740	-369.33610	-330.62465	263.44724	-381.96697	-288.68730	405.05567	-878.89123	-299.65782	284.52191	-899.12747	-170.13791	768.95510	-456.63459	-173.28524	661.56961	-439.81365	-221.01069	642.19312	-397.11020	-275.54083	773.91124	-417.22717	-274.13739	659.07777	-400.78328	-173.87099	757.19944	-818.09659	-169.44172	621.43953	-833.04559	-280.98775	767.95199	-850.01906	-277.91874	627.49308	-858.03531	-142.19207	921.59358	-504.08701	-315.17189	990.12078	-581.97279	-127.79210	922.27550	-751.58359	-311.97907	991.54073	-698.60494	-323.82959	1424.54916	-635.77224	-271.93642	1396.00448	-480.59240	-257.78957	1401.69613	-791.42774	-198.14128	1384.88990	-616.86950	-194.36121	1381.68085	-655.60576	-246.59691	1274.78557	-410.16993	-329.40647	1070.72722	-434.25063	-281.76160	1093.05550	-367.76172	-184.45866	1137.07039	-427.19580	-125.15923	1187.59901	-493.12478	-102.15931	1158.48594	-484.95606	-225.24482	1256.18216	-858.76867	-300.64261	1065.16469	-827.47698	-260.20453	1073.26952	-898.52829	-173.19421	1108.56994	-844.23201	-105.35658	1170.52486	-754.13043	-89.33923	1141.19582	-751.70129	-240.31418	863.61793	-536.90519	-225.91529	860.23652	-725.70451	-220.28993	861.46995	-541.75418	-215.81269	863.46113	-705.30540	
3	0.02000000	-277.33555	476.55980	-415.74056	-244.81145	371.13178	-409.06696	-312.31984	92.43938	-407.49048	-350.24892	52.05784	-462.32774	-206.17214	40.53024	-352.38641	-163.29880	58.17327	-389.48841	-263.52578	473.60207	-842.91013	-224.86732	377.59163	-822.81150	-299.98917	91.11210	-859.09126	-334.99266	51.87713	-807.67605	-185.97681	36.96893	-906.08226	-138.28810	56.92942	-860.92909	-254.03870	257.80675	-410.48437	-309.16068	373.42399	-369.35041	-330.63076	263.45332	-381.96766	-288.62217	405.09061	-878.93938	-299.59533	284.55254	-899.19655	-170.03272	769.00440	-456.50116	-173.27028	661.70870	-439.55525	-220.90030	642.15761	-397.06632	-275.46240	773.89829	-417.21555	-274.11779	658.84536	-400.75182	-173.81513	757.20146	-818.07335	-169.37988	621.39798	-833.01737	-280.90975	767.89688	-849.88409	-277.82721	627.48173	-857.97464	-142.09699	921.60659	-504.01994	-315.09380	990.11520	-581.94844	-127.70509	922.30467	-751.52640	-311.89247	991.56327	-698.58132	-323.65328	1424.60486	-635.86445	-271.79474	1395.94926	-480.56480	-257.61963	1401.61039	-791.45317	-197.97689	1384.85879	-616.82537	-194.21577	1381.62873	-655.63116	-246.49033	1274.82828	-410.12581	-329.18386	1070.66374	-434.10629	-281.61903	1093.10176	-367.58142	-184.31300	1137.15683	-427.02062	-125.01280	1187.60681	-493.05239	-101.98104	1158.47548	-484.92558	-225.05509	1256.20305	-858.82530	-300.65862	1064.98900	-827.54996	-259.86889	1073.28270	-898.56721	-172.93489	1108.72098	-844.22889	-105.31020	1170.49700	-754.09520	-89.21733	1141.28743	-751.69757	-240.22914	863.62658	-536.86826	-225.81143	860.25567	-725.66633	-220.19366	861.44872	-541.70967	-215.70437	863.47937	-705.26629	
4	0.03000000	-277.24395	476.57766	-415.70237	-244.75703	371.08662	-409.09934	-312.34035	92.47966	-407.47226	-350.24120	52.08228	-462.30401	-206.17447	40.56031	-352.41452	-163.28691	58.19651	-389.48586	-263.45393	473.56534	-842.88368	-224.79213	377.59210	-822.80568	-299.99607	91.12071	-859.09579	-334.99377	51.89874	-807.70878	-185.97379	36.95076	-906.09175	-138.30645	57.02359	-861.03566	-253.94236	257.70489	-410.50088	-309.11329	373.45440	-369.35086	-330.66927	263.49062	-381.95828	-288.55298	405.08446	-878.91408	-299.57888	284.58143	-899.32593	-169.97336	769.03092	-456.37459	-173.23704	661.84273	-439.33386	-220.77633	642.15111	-396.97166	-275.36996	773.95417	-417.15618	-273.99719	659.05020	-400.67910	-173.77431	757.21057	-818.06942	-169.31764	621.37393	-832.99653	-280.85378	767.87508	-849.79562	-277.73098	627.47873	-857.96028	-142.01229	921.64803	-503.97502	-315.02570	990.12204	-581.92158	-127.63577	922.35482	-751.46214	-311.81690	991.56387	-698.54932	-323.47539	1424.63545	-636.01470	-271.71639	1396.01125	-480.51862	-257.44658	1401.55181	-791.47139	-197.80682	1384.81127	-616.85273	-194.05606	1381.55597	-655.58687	-246.38534	1274.88895	-410.08864	-328.98211	1070.60071	-433.93532	-281.42692	1093.14651	-367.40255	-184.14007	1137.24869	-426.83839	-124.84819	1187.65688	-492.95632	-101.83272	1158.50186	-484.85139	-224.83119	1256.22885	-858.93394	-300.47882	1064.92367	-827.66791	-259.50638	1073.22219	-898.49823	-172.66738	1108.86473	-844.20289	-105.23872	1170.49054	-753.96990	-89.06626	1141.38893	-751.68885	-240.13890	863.65001	-536.82491	-225.71211	860.27805	-725.62227	-220.10647	861.48801	-541.66380	-215.60689	863.50984	-705.20694	
